<svg xmlns="http://www.w3.org/2000/svg" xmlns:xlink="http://www.w3.org/1999/xlink" fill="none" viewBox="0 0 436 202">
  <defs>
    <path id="reuse-0" fill="#fff" d="M0 0h66v66H0z"/>
  </defs>
  <path fill="#303030" d="M1.15 2.74h1.27l1.92 4.7h.08l1.92-4.7h1.27V9h-1V4.59h-.05l-1.79 4.4H4L2.21 4.57h-.06V9h-1V2.74Zm9.06 6.36c-.3 0-.56-.06-.8-.16-.24-.11-.43-.27-.57-.48a1.4 1.4 0 0 1-.2-.78c0-.27.04-.49.14-.66.1-.17.24-.3.41-.41.17-.1.37-.18.58-.23.21-.05.43-.09.66-.11l.67-.09a1 1 0 0 0 .38-.1c.08-.05.12-.13.12-.24v-.02a.75.75 0 0 0-.22-.58c-.14-.13-.35-.2-.62-.2-.3 0-.52.06-.69.19a1 1 0 0 0-.34.43l-.95-.17A1.65 1.65 0 0 1 9.9 4.38a2.65 2.65 0 0 1 2.1.19c.18.12.33.28.45.5.11.2.17.47.17.8V9h-.98v-.64h-.03a1.38 1.38 0 0 1-.73.63c-.19.07-.4.1-.66.1Zm.25-.77c.23 0 .44-.05.61-.14.17-.1.3-.22.4-.38.09-.15.13-.32.13-.5v-.58a.51.51 0 0 1-.18.09 3.44 3.44 0 0 1-.62.11l-.27.04c-.17.03-.32.06-.46.11a.77.77 0 0 0-.33.22.54.54 0 0 0-.12.37c0 .22.07.38.23.5.16.1.36.16.6.16Zm4.24-.86V6.24h.17l1.78-1.93h1.19l-2.1 2.28h-.19l-.85.88ZM13.78 9V2.74h1.01V9h-1.01Zm2.96 0-1.61-2.18.69-.71L17.96 9h-1.22Zm3.74.1c-.47 0-.87-.1-1.2-.3a2 2 0 0 1-.79-.84 2.82 2.82 0 0 1-.27-1.28c0-.48.1-.9.27-1.27a2.07 2.07 0 0 1 1.93-1.16c.27 0 .54.04.8.13a1.85 1.85 0 0 1 1.14 1.15c.11.3.17.66.17 1.08v.33h-3.8v-.71h2.82c0-.23-.05-.43-.14-.6a1.05 1.05 0 0 0-.98-.58 1.15 1.15 0 0 0-1.06.64c-.1.19-.14.4-.15.61v.6c0 .29.06.54.16.75.1.2.26.36.45.47.19.11.4.16.66.16.17 0 .32-.02.46-.07a.94.94 0 0 0 .58-.57l.95.14c-.07.27-.2.5-.37.7-.18.19-.41.34-.69.45-.27.11-.59.16-.94.16Z"/>
  <rect width="87.24" height="22.22" x=".81" y="14.54" fill="#fff" rx="3.38"/>
  <rect width="87.24" height="22.22" x=".81" y="14.54" stroke="#8A8A8A" stroke-width=".61" rx="3.38"/>
  <path fill="#303030" d="M8.63 28.15v-6.26h.76v2.79h3.34v-2.79h.76v6.26h-.76v-2.8H9.39v2.8h-.76Zm8.18.1c-.42 0-.8-.1-1.11-.3-.32-.2-.57-.49-.75-.85a2.86 2.86 0 0 1-.26-1.27c0-.5.08-.92.26-1.28.18-.37.43-.65.75-.85.32-.2.69-.3 1.11-.3.43 0 .8.1 1.11.3.32.2.57.48.75.85.18.36.27.79.27 1.28 0 .48-.09.9-.27 1.27a2.03 2.03 0 0 1-1.86 1.15Zm0-.65c.32 0 .59-.08.8-.25.2-.16.36-.38.46-.65a2.52 2.52 0 0 0 0-1.75c-.1-.27-.26-.5-.46-.66-.21-.16-.48-.25-.8-.25-.32 0-.58.09-.8.25-.2.17-.35.39-.45.66-.1.27-.15.56-.15.88 0 .31.05.6.15.87.1.27.25.49.46.65.2.17.47.25.8.25Zm3.95-2.28v2.83h-.72v-4.7h.7v.74h.06c.1-.24.28-.43.5-.58.22-.14.51-.22.87-.22.31 0 .6.07.83.2.24.13.43.32.56.59.13.26.2.59.2.99v2.98h-.73V25.2c0-.36-.1-.65-.28-.86-.2-.2-.46-.3-.8-.3-.22 0-.43.04-.6.14-.19.1-.33.25-.43.44-.1.19-.16.42-.16.7Zm6.09 2.93a1.84 1.84 0 0 1-1.74-1.14c-.17-.37-.26-.8-.26-1.3 0-.49.09-.92.26-1.28s.4-.64.7-.84c.3-.2.65-.3 1.05-.3.3 0 .55.05.72.16.18.1.32.21.41.34l.23.31h.06v-2.31H29v6.26h-.7v-.72h-.08c-.06.08-.13.2-.23.32-.1.13-.24.24-.42.35-.18.1-.42.15-.72.15Zm.1-.65c.28 0 .53-.08.73-.23.2-.15.35-.36.45-.63.1-.27.16-.58.16-.94 0-.35-.05-.66-.15-.92-.1-.26-.26-.47-.46-.62a1.2 1.2 0 0 0-.74-.22c-.3 0-.56.08-.76.24-.2.15-.35.36-.46.63-.1.26-.14.56-.14.9 0 .33.05.63.15.9.1.27.25.49.46.65.2.16.45.24.75.24Zm4.85.66c-.3 0-.57-.06-.81-.17a1.39 1.39 0 0 1-.58-.5 1.39 1.39 0 0 1-.21-.77c0-.27.05-.5.16-.66.1-.17.24-.3.42-.4.18-.1.38-.16.59-.2.21-.06.43-.1.65-.13l.7-.08c.17-.02.3-.05.38-.1.09-.05.13-.13.13-.24v-.03c0-.3-.08-.53-.25-.7-.16-.17-.4-.25-.74-.25-.34 0-.61.07-.81.23-.2.15-.33.3-.41.48l-.69-.25a1.64 1.64 0 0 1 1.16-1 2.79 2.79 0 0 1 1.24-.04c.2.03.4.1.58.22.18.1.34.27.46.5.12.22.18.51.18.89v3.09h-.72v-.64h-.04c-.05.1-.13.21-.24.33-.12.12-.27.21-.46.3-.19.08-.42.12-.69.12Zm.11-.65c.29 0 .53-.06.72-.17a1.14 1.14 0 0 0 .6-1v-.65c-.03.04-.1.07-.2.1a3.4 3.4 0 0 1-.74.13l-.3.04c-.2.02-.37.06-.53.12a.9.9 0 0 0-.4.24c-.1.1-.14.25-.14.43 0 .25.1.44.28.57.19.13.42.2.71.2Z"/>
  <path fill="#4A4A4A" fill-rule="evenodd" d="M72.52 24.19a.46.46 0 0 1 .66.02L74.84 26l1.66-1.79a.46.46 0 1 1 .67.63l-2 2.15a.46.46 0 0 1-.67 0l-2-2.15a.46.46 0 0 1 .02-.65Z" clip-rule="evenodd"/>
  <path fill="#303030" d="M93.93 2.74h1.26l1.93 4.7h.07l1.93-4.7h1.27V9h-1V4.59h-.06l-1.78 4.4h-.79l-1.78-4.41h-.06V9h-1V2.74Zm9.71 6.35c-.45 0-.84-.1-1.17-.3-.33-.2-.59-.48-.77-.85a2.8 2.8 0 0 1-.28-1.27c0-.48.1-.9.28-1.27a2.04 2.04 0 0 1 1.94-1.15 2.03 2.03 0 0 1 1.94 1.15c.19.36.28.79.28 1.27 0 .49-.09.91-.27 1.27a2.05 2.05 0 0 1-1.95 1.15Zm0-.82c.28 0 .5-.08.67-.22.18-.15.31-.34.4-.58.09-.24.13-.5.13-.8 0-.3-.04-.56-.13-.8a1.3 1.3 0 0 0-.4-.59 1 1 0 0 0-.66-.22c-.28 0-.5.08-.68.22a1.3 1.3 0 0 0-.4.59c-.08.24-.13.5-.13.8 0 .3.05.56.14.8.08.24.22.44.4.58.17.14.4.22.67.22Zm4.95.82a1.8 1.8 0 0 1-1.7-1.12c-.17-.36-.25-.8-.25-1.3 0-.52.09-.96.26-1.32a1.83 1.83 0 0 1 1.7-1.1c.28 0 .51.04.69.14.17.1.31.2.42.33.1.13.18.25.23.35h.05V2.74H111V9h-.99v-.74h-.07c-.06.11-.14.23-.24.36-.1.13-.25.24-.43.33-.17.09-.4.14-.68.14Zm.26-.84c.25 0 .46-.07.63-.2.17-.14.3-.32.4-.56.09-.24.13-.52.13-.84 0-.31-.04-.59-.13-.82a1.18 1.18 0 0 0-.4-.55c-.17-.13-.38-.2-.63-.2-.26 0-.48.08-.66.21-.17.14-.3.32-.4.56-.08.23-.12.5-.12.8 0 .3.04.58.13.82.1.24.22.43.4.57.17.14.39.2.65.2Zm5.45.84c-.47 0-.87-.1-1.21-.3a2 2 0 0 1-.78-.83 2.82 2.82 0 0 1-.27-1.28c0-.48.09-.9.27-1.27a2.08 2.08 0 0 1 1.92-1.16c.28 0 .55.04.8.13a1.85 1.85 0 0 1 1.14 1.15c.12.3.18.66.18 1.08v.33h-3.8v-.71h2.82c0-.23-.05-.43-.15-.6-.09-.18-.22-.32-.39-.42a1.1 1.1 0 0 0-.59-.16 1.15 1.15 0 0 0-1.05.64c-.1.19-.15.4-.15.61v.6c0 .29.05.54.16.75.1.2.25.36.44.47.2.11.41.16.67.16.16 0 .32-.02.45-.07a.94.94 0 0 0 .58-.57l.95.14c-.06.27-.19.5-.37.7-.18.19-.4.34-.68.45-.28.11-.6.16-.94.16Zm4.03-6.35V9h-1.01V2.74h1.01Z"/>
  <rect width="87.24" height="22.22" x="93.58" y="14.54" fill="#fff" rx="3.38"/>
  <rect width="87.24" height="22.22" x="93.58" y="14.54" stroke="#8A8A8A" stroke-width=".61" rx="3.38"/>
  <path fill="#303030" d="M101.67 28.15h-.8l2.3-6.26h.78l2.3 6.26h-.8l-1.87-5.27h-.05l-1.86 5.27Zm.29-2.45h3.2v.68h-3.2v-.68Zm7.07 2.55c-.44 0-.82-.1-1.13-.32-.32-.2-.57-.49-.74-.85a2.9 2.9 0 0 1-.25-1.25c0-.48.08-.9.26-1.27a1.99 1.99 0 0 1 1.85-1.17c.33 0 .63.06.9.19.26.12.47.29.64.51.17.22.28.48.32.77h-.72c-.06-.21-.18-.4-.37-.57a1.1 1.1 0 0 0-.76-.25c-.28 0-.53.07-.74.22-.2.15-.37.35-.49.62-.11.26-.17.57-.17.92 0 .36.05.68.17.95.11.27.28.48.49.63.2.14.46.22.74.22.19 0 .36-.03.51-.1a1.05 1.05 0 0 0 .62-.72h.72a1.66 1.66 0 0 1-.94 1.27c-.26.13-.56.2-.9.2Zm4.8 0c-.43 0-.8-.1-1.13-.32-.31-.2-.56-.49-.73-.85a2.91 2.91 0 0 1-.26-1.25c0-.48.09-.9.27-1.27a1.99 1.99 0 0 1 1.85-1.17c.33 0 .63.06.89.19a1.6 1.6 0 0 1 .97 1.28h-.73a1.12 1.12 0 0 0-1.12-.82c-.28 0-.53.07-.74.22-.21.15-.37.35-.5.62-.1.26-.17.57-.17.92 0 .36.06.68.17.95.12.27.28.48.5.63.2.14.45.22.74.22.19 0 .36-.03.51-.1a1.05 1.05 0 0 0 .61-.72h.73a1.67 1.67 0 0 1-.94 1.27c-.26.13-.56.2-.91.2Zm4.82 0c-.43 0-.8-.1-1.12-.3-.32-.2-.56-.49-.75-.85a2.87 2.87 0 0 1-.26-1.27c0-.5.09-.92.27-1.28.17-.37.42-.65.74-.85.32-.2.7-.3 1.12-.3.42 0 .8.1 1.1.3.33.2.58.48.75.85.18.36.27.79.27 1.28 0 .48-.09.9-.27 1.27-.17.36-.42.64-.74.84-.32.2-.69.3-1.11.3Zm0-.65c.32 0 .58-.08.8-.25.2-.16.35-.38.45-.65a2.51 2.51 0 0 0 0-1.75c-.1-.27-.25-.5-.46-.66-.2-.16-.47-.25-.8-.25-.32 0-.58.09-.79.25-.2.17-.36.39-.46.66-.1.27-.15.56-.15.88 0 .31.05.6.15.87.1.27.25.49.46.65.21.17.47.25.8.25Zm3.22.55v-4.7h.7v.71h.05c.08-.23.24-.42.46-.56.23-.15.48-.22.76-.22a8.2 8.2 0 0 1 .38.01v.74a2.24 2.24 0 0 0-.44-.05c-.23 0-.43.05-.61.14-.18.1-.32.23-.42.4-.1.16-.16.35-.16.56v2.97h-.72Zm4.83.1a1.84 1.84 0 0 1-1.73-1.14c-.17-.37-.26-.8-.26-1.3 0-.49.09-.92.26-1.28s.4-.64.7-.84c.3-.2.65-.3 1.05-.3.3 0 .54.05.72.16.18.1.32.21.41.34l.22.31h.06v-2.31h.73v6.26h-.7v-.72h-.09c-.05.08-.12.2-.22.32-.1.13-.24.24-.42.35-.18.1-.42.15-.73.15Zm.1-.65c.3 0 .54-.08.74-.23.2-.15.35-.36.45-.63.1-.27.16-.58.16-.94 0-.35-.05-.66-.16-.92-.1-.26-.25-.47-.45-.62a1.2 1.2 0 0 0-.74-.22c-.3 0-.56.08-.76.24-.2.15-.35.36-.46.63-.1.26-.15.56-.15.9 0 .33.05.63.16.9.1.27.25.49.45.65.2.16.46.24.76.24Z"/>
  <path fill="#4A4A4A" fill-rule="evenodd" d="M165.3 24.19a.46.46 0 0 1 .65.02l1.66 1.79 1.66-1.79a.46.46 0 1 1 .68.63l-2 2.15a.46.46 0 0 1-.68 0l-2-2.15a.46.46 0 0 1 .03-.65Z" clip-rule="evenodd"/>
  <path fill="#303030" d="M186.25 2.74h1.18L189 5.55h.07l1.58-2.8h1.18l-2.27 3.85V9h-1.04V6.6l-2.27-3.86Zm7.6 6.35c-.47 0-.88-.1-1.21-.3a2 2 0 0 1-.78-.83 2.82 2.82 0 0 1-.27-1.28c0-.48.09-.9.27-1.27a2.07 2.07 0 0 1 1.92-1.16c.28 0 .54.04.8.13a1.86 1.86 0 0 1 1.14 1.15c.12.3.18.66.18 1.08v.33h-3.8v-.71h2.81c0-.23-.04-.43-.14-.6a1.06 1.06 0 0 0-.98-.58 1.15 1.15 0 0 0-1.05.64c-.1.19-.15.4-.15.61v.6c0 .29.05.54.16.75.1.2.25.36.44.47.19.11.41.16.66.16.17 0 .33-.02.46-.07a.94.94 0 0 0 .58-.57l.95.14c-.06.27-.19.5-.37.7-.18.19-.4.34-.69.45-.27.11-.58.16-.94.16Zm4.38 0c-.3 0-.57-.05-.8-.15-.25-.11-.44-.27-.58-.48a1.4 1.4 0 0 1-.2-.78c0-.27.05-.49.15-.66.1-.17.23-.3.4-.41.18-.1.37-.18.58-.23.21-.05.43-.09.66-.11l.68-.09a1 1 0 0 0 .37-.1c.08-.05.12-.13.12-.24v-.02a.75.75 0 0 0-.21-.58c-.15-.13-.36-.2-.63-.2-.29 0-.52.06-.68.19a1 1 0 0 0-.35.43l-.94-.17a1.65 1.65 0 0 1 1.1-1.11 2.65 2.65 0 0 1 2.1.19c.18.12.33.28.45.5.11.2.17.47.17.8V9h-.98v-.64h-.03c-.06.12-.15.24-.28.35-.12.12-.27.21-.45.28-.18.07-.4.1-.65.1Zm.24-.76c.24 0 .44-.05.61-.14.17-.1.3-.22.4-.38.09-.15.14-.32.14-.5v-.58a.52.52 0 0 1-.19.09 3.38 3.38 0 0 1-.62.11l-.27.04a2.3 2.3 0 0 0-.46.11.78.78 0 0 0-.33.22.55.55 0 0 0-.12.37c0 .22.08.38.24.5.15.1.35.16.6.16Zm3.32.67V4.3h.98v.77h.05c.09-.26.24-.46.45-.61.21-.15.45-.22.72-.22a2.66 2.66 0 0 1 .4.02v.95a1.91 1.91 0 0 0-.5-.06c-.2 0-.4.04-.56.13a1 1 0 0 0-.53.9V9h-1Z"/>
  <rect width="87.24" height="22.22" x="186.36" y="14.54" fill="#fff" rx="3.38"/>
  <rect width="87.24" height="22.22" x="186.36" y="14.54" stroke="#8A8A8A" stroke-width=".61" rx="3.38"/>
  <path fill="#303030" d="M194.07 28.15v-.55l2.07-2.26.6-.7c.16-.2.27-.38.35-.55.07-.17.11-.36.11-.55a1.02 1.02 0 0 0-.58-.94 1.39 1.39 0 0 0-.62-.14c-.24 0-.45.05-.63.15-.17.1-.31.24-.4.42-.1.17-.15.38-.15.62h-.72a1.77 1.77 0 0 1 .94-1.61c.3-.16.62-.24.99-.24a2 2 0 0 1 .97.24 1.65 1.65 0 0 1 .9 1.5c.01.23-.03.46-.11.68-.08.21-.23.46-.43.73-.2.26-.48.59-.84.97l-1.4 1.5v.06h2.9v.67h-3.95Zm7.25.08c-.46 0-.85-.12-1.17-.37a2.35 2.35 0 0 1-.74-1.1 5.22 5.22 0 0 1-.26-1.74c0-.68.09-1.25.26-1.73s.42-.85.74-1.1c.33-.26.72-.39 1.17-.39.46 0 .85.13 1.18.39.32.25.57.62.74 1.1.17.48.26 1.05.26 1.73 0 .68-.09 1.26-.26 1.74s-.42.85-.74 1.1c-.32.25-.72.37-1.18.37Zm0-.67c.46 0 .81-.22 1.07-.66.25-.44.38-1.07.38-1.88 0-.54-.06-1-.18-1.38a1.9 1.9 0 0 0-.5-.88 1.1 1.1 0 0 0-.77-.3c-.45 0-.8.23-1.06.67a3.83 3.83 0 0 0-.38 1.89c0 .54.06 1 .17 1.38.12.38.28.67.5.87.21.2.47.3.77.3Zm5.54-5.67v6.26h-.76v-5.47h-.03l-1.53 1.02v-.77l1.56-1.04h.76Zm3.88 6.34c-.26 0-.51-.05-.77-.14-.26-.1-.5-.25-.7-.48a2.44 2.44 0 0 1-.51-.9 6.27 6.27 0 0 1-.04-2.92c.1-.43.25-.8.45-1.08.2-.3.44-.52.72-.68.28-.15.6-.23.95-.23s.66.07.93.22c.28.13.5.33.67.58.18.24.29.53.34.85h-.75c-.06-.28-.2-.51-.4-.7-.2-.18-.46-.27-.8-.27-.48 0-.86.2-1.14.63a3.24 3.24 0 0 0-.42 1.77h.05a1.84 1.84 0 0 1 1.54-.83c.36 0 .69.1.99.27a2.12 2.12 0 0 1 .98 1.8c0 .4-.09.75-.26 1.08a1.98 1.98 0 0 1-1.83 1.03Zm0-.67a1.37 1.37 0 0 0 1.18-.7c.12-.22.18-.46.18-.73a1.45 1.45 0 0 0-.65-1.21c-.2-.13-.43-.2-.69-.2a1.4 1.4 0 0 0-1.27.88 1.45 1.45 0 0 0 .55 1.75c.2.15.44.21.7.21Z"/>
  <path fill="#4A4A4A" fill-rule="evenodd" d="M258.07 24.19a.46.46 0 0 1 .66.02l1.65 1.79 1.67-1.79a.46.46 0 1 1 .67.63l-2 2.15a.46.46 0 0 1-.67 0l-2-2.15a.46.46 0 0 1 .02-.65Z" clip-rule="evenodd"/>
  <rect width="68.34" height="22.38" x="283.74" y="14.69" fill="#1A1A1A" rx="3.69"/>
  <path fill="#fff" d="M307.51 24.8a.86.86 0 0 0-.38-.65c-.22-.15-.5-.23-.85-.23-.25 0-.46.04-.64.11a.97.97 0 0 0-.41.32.73.73 0 0 0-.15.44c0 .14.04.26.1.36.07.1.15.19.26.26.11.07.23.13.36.17l.38.12.6.15c.22.05.44.12.65.21.22.09.41.2.59.34.17.14.31.31.42.52.1.2.16.44.16.71 0 .36-.09.68-.28.96-.18.27-.45.5-.8.65-.34.15-.77.23-1.26.23-.48 0-.9-.07-1.25-.22a1.87 1.87 0 0 1-.82-.65 1.9 1.9 0 0 1-.32-1.02h1.03c.02.23.1.41.21.56.13.15.29.26.49.33s.41.1.65.1c.26 0 .48-.03.68-.11.2-.08.35-.2.46-.34.12-.14.18-.3.18-.5a.63.63 0 0 0-.15-.43c-.1-.11-.24-.2-.41-.28a3.93 3.93 0 0 0-.6-.2l-.72-.2c-.51-.13-.91-.33-1.21-.6-.3-.26-.44-.62-.44-1.06 0-.36.1-.68.3-.95.2-.28.46-.49.8-.64.34-.15.73-.23 1.16-.23.43 0 .81.08 1.14.23.33.15.6.36.78.63.19.26.29.57.3.9h-1Zm4.15 4.67c-.46 0-.87-.1-1.2-.3a2 2 0 0 1-.78-.84 2.8 2.8 0 0 1-.28-1.27c0-.48.1-.9.28-1.28a2.07 2.07 0 0 1 1.92-1.16c.28 0 .54.04.8.13a1.85 1.85 0 0 1 1.14 1.16c.11.3.17.66.17 1.08v.33h-3.79v-.72h2.81c0-.22-.04-.42-.14-.6a1.06 1.06 0 0 0-.98-.57 1.16 1.16 0 0 0-1.05.63c-.1.2-.15.4-.15.62v.59c0 .3.05.54.16.75.1.2.25.37.44.48.19.1.4.16.66.16.17 0 .32-.02.46-.07a.94.94 0 0 0 .58-.57l.95.14c-.07.26-.19.5-.37.69-.18.2-.4.35-.69.46-.27.1-.59.16-.94.16Zm4.38 0c-.3 0-.56-.05-.8-.16-.24-.1-.43-.27-.57-.48-.14-.2-.2-.47-.2-.78 0-.26.04-.48.14-.65.1-.18.24-.31.41-.41.18-.1.37-.18.58-.23.21-.06.43-.1.66-.12l.67-.08a1 1 0 0 0 .38-.1c.08-.06.12-.14.12-.24v-.03a.75.75 0 0 0-.22-.57c-.14-.14-.35-.2-.62-.2-.29 0-.52.06-.69.18a1 1 0 0 0-.34.44l-.94-.17a1.65 1.65 0 0 1 1.1-1.12 2.65 2.65 0 0 1 2.1.2c.18.11.33.28.45.49.11.21.17.48.17.8v3.14h-.98v-.65h-.03a1.38 1.38 0 0 1-.73.63c-.18.08-.4.11-.65.11Zm.25-.77c.23 0 .44-.04.61-.14.17-.1.3-.22.4-.37.09-.16.13-.32.13-.5v-.58a.5.5 0 0 1-.18.08 3.5 3.5 0 0 1-.62.12l-.27.04a2.3 2.3 0 0 0-.46.1.78.78 0 0 0-.33.23.55.55 0 0 0-.12.37c0 .21.07.38.23.49.16.1.36.16.6.16Zm3.32.68v-4.7h.98v.77h.05c.09-.27.23-.47.45-.62.2-.14.45-.22.72-.22a2.67 2.67 0 0 1 .4.03v.95a1.92 1.92 0 0 0-.5-.06c-.2 0-.4.04-.56.13a1 1 0 0 0-.53.9v2.82h-1.01Zm5.2.09c-.46 0-.86-.1-1.19-.3-.33-.22-.58-.5-.76-.86a2.83 2.83 0 0 1-.27-1.26c0-.48.09-.9.27-1.27a2.07 2.07 0 0 1 1.94-1.16c.37 0 .7.07.98.2a1.7 1.7 0 0 1 1 1.43h-.98a1.02 1.02 0 0 0-.32-.57.95.95 0 0 0-.67-.23c-.24 0-.45.07-.63.2-.18.12-.32.3-.42.54-.1.23-.15.51-.15.84 0 .33.05.61.15.85.1.24.24.43.42.56.18.13.4.19.63.19.17 0 .32-.03.46-.1a.92.92 0 0 0 .34-.27c.1-.12.16-.26.2-.43h.97a1.71 1.71 0 0 1-.98 1.43c-.28.14-.61.21-1 .21Zm3.93-2.86v2.77h-1.01v-6.26h.99v2.34h.06c.1-.26.28-.46.5-.61.23-.15.53-.23.89-.23.32 0 .6.07.85.2.24.14.43.33.56.6.13.26.2.58.2.97v2.98h-1v-2.84c0-.33-.1-.59-.26-.77a.92.92 0 0 0-.71-.28c-.2 0-.4.05-.56.14a.94.94 0 0 0-.37.38c-.1.17-.14.37-.14.6Z"/>
  <rect width="78.5" height="22.38" x="357" y="14.69" fill="#E6E6E6" rx="3.69"/>
  <path fill="#303030" d="M378.17 25.19h-1.04a1.5 1.5 0 0 0-.54-.9c-.14-.1-.3-.19-.47-.24a1.88 1.88 0 0 0-1.49.19c-.27.17-.48.43-.64.77-.16.33-.24.75-.24 1.24 0 .5.08.9.24 1.25.16.33.37.59.65.76a1.9 1.9 0 0 0 1.48.18c.16-.05.32-.13.46-.23.13-.1.25-.22.35-.37.1-.15.16-.32.2-.51h1.04a2.44 2.44 0 0 1-1.63 1.97c-.3.1-.63.16-.98.16-.55 0-1.04-.13-1.46-.38a2.69 2.69 0 0 1-1.02-1.1 3.78 3.78 0 0 1-.36-1.73c0-.67.12-1.25.37-1.73a2.68 2.68 0 0 1 2.47-1.49c.34 0 .65.05.95.15a2.45 2.45 0 0 1 1.36 1.1c.15.26.25.57.3.9Zm2.04-2.07v6.25h-1.01v-6.25h1Zm3.23 6.35c-.46 0-.87-.1-1.2-.3a2 2 0 0 1-.78-.84 2.8 2.8 0 0 1-.28-1.27c0-.48.1-.9.28-1.28a2.07 2.07 0 0 1 1.92-1.16c.28 0 .54.04.8.13a1.85 1.85 0 0 1 1.14 1.16c.11.3.17.66.17 1.08v.33h-3.79v-.72h2.81c0-.22-.05-.42-.14-.6a1.06 1.06 0 0 0-.98-.57 1.15 1.15 0 0 0-1.05.63c-.1.2-.15.4-.15.62v.59c0 .3.05.54.16.75.1.2.25.37.44.48.19.1.4.16.66.16.17 0 .32-.02.46-.07a.94.94 0 0 0 .58-.57l.95.14c-.07.26-.2.5-.37.69-.18.2-.41.35-.69.46-.27.1-.59.16-.94.16Zm4.38 0c-.3 0-.56-.05-.8-.16-.24-.1-.43-.27-.57-.48-.14-.2-.2-.47-.2-.78 0-.26.04-.48.14-.65.1-.18.24-.31.41-.41.17-.1.37-.18.58-.23.21-.06.43-.1.66-.12l.67-.08a1 1 0 0 0 .38-.1c.08-.06.12-.14.12-.24v-.03a.75.75 0 0 0-.22-.57c-.14-.14-.35-.2-.62-.2-.3 0-.52.06-.69.18a1 1 0 0 0-.34.44l-.95-.17a1.65 1.65 0 0 1 1.11-1.12 2.65 2.65 0 0 1 2.1.2c.18.11.33.28.44.49.12.21.18.48.18.8v3.14h-.98v-.65h-.04a1.38 1.38 0 0 1-.73.63c-.18.08-.4.11-.65.11Zm.25-.77c.23 0 .44-.04.6-.14.18-.1.31-.22.4-.37.1-.16.14-.32.14-.5v-.58a.51.51 0 0 1-.18.08 3.52 3.52 0 0 1-.62.12l-.27.04c-.17.02-.32.06-.46.1a.78.78 0 0 0-.33.23.55.55 0 0 0-.13.37c0 .21.08.38.24.49.16.1.36.16.6.16Zm3.32.68v-4.7h.98v.77h.05c.08-.27.23-.47.44-.62.22-.14.46-.22.73-.22a2.62 2.62 0 0 1 .4.03v.95a1.92 1.92 0 0 0-.5-.06c-.2 0-.4.04-.56.13a1 1 0 0 0-.39.37c-.1.15-.14.33-.14.53v2.82h-1.01Zm7.88-4.7v.8h-2.72v-.8h2.72Zm-2 4.7v-5.2a1.22 1.22 0 0 1 .71-1.21c.22-.1.45-.15.71-.15a2.31 2.31 0 0 1 .8.13l-.21.8-.17-.05a1.06 1.06 0 0 0-.24-.02c-.22 0-.37.05-.46.15a.67.67 0 0 0-.14.45v5.1h-1Zm2.9 0v-4.7h1.01v4.7h-1.01Zm.51-5.4a.61.61 0 0 1-.43-.16.54.54 0 0 1-.18-.4c0-.16.06-.3.18-.41a.61.61 0 0 1 .43-.17.6.6 0 0 1 .43.17c.12.11.18.25.18.4 0 .16-.06.3-.18.41a.6.6 0 0 1-.43.17Zm2.7-.86v6.25h-1.02v-6.25h1.01Zm3.45 1.56v.8h-2.63v-.8h2.63Zm-1.96-1.12h1.01v4.42c0 .16.03.29.08.37.05.08.1.14.19.17a.8.8 0 0 0 .27.05l.18-.02.13-.02.18.8a2.7 2.7 0 0 1-.62.1c-.26.02-.5-.03-.71-.12-.22-.1-.39-.23-.52-.42-.13-.2-.2-.44-.19-.73v-4.6Zm4.93 5.91c-.47 0-.87-.1-1.21-.3a2 2 0 0 1-.78-.84 2.8 2.8 0 0 1-.27-1.27c0-.48.09-.9.27-1.28a2.07 2.07 0 0 1 1.92-1.16c.28 0 .55.04.8.13a1.85 1.85 0 0 1 1.14 1.16c.12.3.18.66.18 1.08v.33h-3.8v-.72h2.81c0-.22-.04-.42-.14-.6a1.06 1.06 0 0 0-.98-.57 1.16 1.16 0 0 0-1.05.63c-.1.2-.15.4-.15.62v.59c0 .3.05.54.16.75.1.2.25.37.44.48.2.1.41.16.66.16.17 0 .33-.02.46-.07a.94.94 0 0 0 .58-.57l.95.14c-.06.26-.19.5-.37.69-.18.2-.4.35-.68.46-.28.1-.6.16-.94.16Zm3.02-.1v-4.69h.98v.77h.05c.08-.27.23-.47.44-.62.22-.14.46-.22.73-.22a2.62 2.62 0 0 1 .4.03v.95a1.93 1.93 0 0 0-.5-.06c-.21 0-.4.04-.56.13a1 1 0 0 0-.4.37c-.08.15-.13.33-.13.53v2.82h-1.01Zm6.97-3.5-.92.13a.87.87 0 0 0-.44-.52 1.05 1.05 0 0 0-.46-.09c-.24 0-.45.06-.61.17-.17.1-.25.24-.25.41 0 .15.06.27.17.36.1.09.29.16.53.22l.78.17c.44.1.76.25.98.46.21.2.32.48.32.81 0 .3-.08.55-.25.77-.17.22-.4.4-.7.52-.29.13-.63.19-1.01.19-.55 0-1-.12-1.34-.35a1.45 1.45 0 0 1-.62-.99l.98-.12c.06.22.16.4.33.5.16.12.38.17.64.17.28 0 .51-.05.68-.17.17-.12.25-.26.26-.43a.46.46 0 0 0-.17-.35c-.1-.1-.26-.17-.49-.22l-.79-.17a1.9 1.9 0 0 1-.99-.47c-.2-.23-.31-.5-.31-.84 0-.28.07-.53.23-.74.16-.21.38-.38.66-.5.28-.11.6-.17.96-.17.53 0 .95.11 1.25.34.3.23.5.53.58.92Z"/>
  <path fill="#EDEEEF" d="M.5 61.06h130.08v110.28H.5z"/>
  <g fill="#CCC" clip-path="url(#a)">
    <path d="M66.63 97.8a18.2 18.2 0 1 0 0 36.4 18.2 18.2 0 0 0 0-36.4Zm0 34.13a15.93 15.93 0 1 1 0-31.86 15.93 15.93 0 0 1 0 31.86Z"/>
    <path d="M76.87 112.59a3.41 3.41 0 1 0 0 6.82 3.41 3.41 0 0 0 0-6.82Zm0 4.55a1.14 1.14 0 1 1 0-2.28 1.14 1.14 0 0 1 0 2.28ZM56.4 112.59a3.41 3.41 0 1 0 0 6.82 3.41 3.41 0 0 0 0-6.82Zm0 4.55a1.14 1.14 0 1 1 0-2.28 1.14 1.14 0 0 1 0 2.28ZM66.63 122.82a3.41 3.41 0 1 0 0 6.83 3.41 3.41 0 0 0 0-6.83Zm0 4.56a1.14 1.14 0 1 1 0-2.28 1.14 1.14 0 0 1 0 2.28ZM66.63 102.35a3.41 3.41 0 1 0 0 6.83 3.41 3.41 0 0 0 0-6.83Zm0 4.55a1.14 1.14 0 1 1 0-2.27 1.14 1.14 0 0 1 0 2.27Z"/>
    <path d="M88.53 92.85a31.85 31.85 0 0 0-43.77 0c-1.37-.63-3-.28-3.98.87a34.13 34.13 0 0 0 0 44.56c.62.72 1.5 1.15 2.45 1.18h.13c.48 0 .96-.1 1.4-.31a31.85 31.85 0 1 0 43.77-46.3Zm-44.36 44a1.14 1.14 0 0 1-1.67-.04c-.23-.27-.43-.56-.66-.84l2.27-2.26-1.61-1.6-2.04 2.02a31.76 31.76 0 0 1 0-36.25l2.04 2.03 1.6-1.6-2.26-2.27c.23-.28.43-.57.66-.84.2-.23.5-.37.81-.38h.05c.3 0 .6.12.81.34l4.84 4.84c.42.43.44 1.1.05 1.55a22.75 22.75 0 0 0 0 28.92c.39.45.37 1.12-.05 1.54l-4.84 4.85Zm22.45 8.72a29.57 29.57 0 0 1-20.08-7.87l4.08-4.08a3.41 3.41 0 0 0 .2-4.6 20.48 20.48 0 0 1 0-26.03 3.41 3.41 0 0 0-.2-4.6l-4.08-4.09a29.58 29.58 0 1 1 20.08 51.27Z"/>
    <path d="m81.92 99.1-1.6 1.62 1.6 1.6 1.6-1.6-1.6-1.61ZM86.74 97.5l-1.6 1.6 1.6 1.61 1.61-1.6-1.6-1.61ZM81.93 129.68l-1.61 1.6 1.6 1.62 1.62-1.61-1.61-1.61ZM83.53 134.5l-1.61 1.6 1.6 1.61 1.62-1.6-1.61-1.61ZM89.38 114.86h-2.27v2.28h2.27v-2.28ZM93.93 117.14h-2.27v2.27h2.27v-2.27ZM67.77 93.25h-2.28v2.28h2.28v-2.28ZM67.77 136.48h-2.28v2.27h2.28v-2.27ZM70.04 88.7h-2.27v2.27h2.27V88.7ZM65.5 141.03h-2.28v2.27h2.27v-2.27ZM66.63 111.45a4.55 4.55 0 1 0 0 9.1 4.55 4.55 0 0 0 0-9.1Zm0 6.83a2.28 2.28 0 1 1 0-4.56 2.28 2.28 0 0 1 0 4.56ZM43.56 103.73l-2-1.08a28.18 28.18 0 0 0 0 26.7l2-1.07a25.9 25.9 0 0 1 0-24.55ZM45.71 99.91l-1.6 1.61 1.6 1.6 1.61-1.6-1.6-1.6ZM45.71 128.87l-1.6 1.61 1.6 1.6 1.61-1.6-1.6-1.6Z"/>
  </g>
  <rect width="61.18" height="6.04" x=".5" y="177.1" fill="#EDEEEF" rx="3.02"/>
  <rect width="27.95" height="12.09" x=".5" y="189.19" fill="#EDEEEF" rx="6.04"/>
  <path fill="#EDEEEF" d="M151.2 61.06h130.08v110.28H151.2z"/>
  <g fill="#CCC" clip-path="url(#b)">
    <path d="M217.33 97.8a18.2 18.2 0 1 0 0 36.4 18.2 18.2 0 0 0 0-36.4Zm0 34.13a15.93 15.93 0 1 1 0-31.86 15.93 15.93 0 0 1 0 31.86Z"/>
    <path d="M227.57 112.59a3.41 3.41 0 1 0 0 6.82 3.41 3.41 0 0 0 0-6.82Zm0 4.55a1.14 1.14 0 1 1 0-2.28 1.14 1.14 0 0 1 0 2.28ZM207.09 112.59a3.41 3.41 0 1 0 0 6.82 3.41 3.41 0 0 0 0-6.82Zm0 4.55a1.14 1.14 0 1 1 0-2.28 1.14 1.14 0 0 1 0 2.28ZM217.33 122.82a3.41 3.41 0 1 0 0 6.83 3.41 3.41 0 0 0 0-6.83Zm0 4.56a1.14 1.14 0 1 1 0-2.28 1.14 1.14 0 0 1 0 2.28ZM217.33 102.35a3.41 3.41 0 1 0 0 6.83 3.41 3.41 0 0 0 0-6.83Zm0 4.55a1.14 1.14 0 1 1 0-2.27 1.14 1.14 0 0 1 0 2.27Z"/>
    <path d="M239.23 92.85a31.85 31.85 0 0 0-43.77 0c-1.37-.63-3-.28-3.98.87a34.13 34.13 0 0 0 0 44.56c.62.72 1.5 1.15 2.45 1.18h.12c.49 0 .97-.1 1.41-.31a31.85 31.85 0 1 0 43.77-46.3Zm-44.36 44a1.14 1.14 0 0 1-1.67-.04c-.23-.27-.44-.56-.66-.84l2.26-2.26-1.6-1.6-2.04 2.02a31.76 31.76 0 0 1 0-36.25l2.04 2.03 1.6-1.6-2.26-2.27c.23-.28.43-.57.66-.84.2-.23.5-.37.81-.38h.05c.3 0 .6.12.8.34l4.85 4.84c.41.43.43 1.1.05 1.55a22.75 22.75 0 0 0 0 28.92c.39.45.36 1.12-.05 1.54l-4.84 4.85Zm22.45 8.72a29.57 29.57 0 0 1-20.08-7.87l4.08-4.08a3.41 3.41 0 0 0 .2-4.6 20.48 20.48 0 0 1 0-26.03 3.41 3.41 0 0 0-.2-4.6l-4.09-4.09a29.58 29.58 0 1 1 20.09 51.27Z"/>
    <path d="m232.62 99.1-1.61 1.62 1.6 1.6 1.62-1.6-1.61-1.61ZM237.44 97.5l-1.61 1.6 1.6 1.61 1.62-1.6-1.61-1.61ZM232.62 129.68l-1.6 1.6 1.6 1.62 1.61-1.61-1.6-1.61ZM234.22 134.5l-1.6 1.6 1.6 1.61 1.61-1.6-1.6-1.61ZM240.08 114.86h-2.28v2.28h2.28v-2.28ZM244.63 117.14h-2.28v2.27h2.28v-2.27ZM218.47 93.25h-2.28v2.28h2.28v-2.28ZM218.47 136.48h-2.28v2.27h2.28v-2.27ZM220.74 88.7h-2.28v2.27h2.28V88.7ZM216.19 141.03h-2.28v2.27h2.28v-2.27ZM217.33 111.45a4.55 4.55 0 1 0 0 9.1 4.55 4.55 0 0 0 0-9.1Zm0 6.83a2.28 2.28 0 1 1 0-4.56 2.28 2.28 0 0 1 0 4.56ZM194.26 103.73l-2.01-1.08a28.18 28.18 0 0 0 0 26.7l2-1.07a25.9 25.9 0 0 1 0-24.55ZM196.41 99.91l-1.6 1.61 1.6 1.6 1.61-1.6-1.6-1.6ZM196.41 128.87l-1.6 1.61 1.6 1.6 1.61-1.6-1.6-1.6Z"/>
  </g>
  <rect width="61.18" height="6.04" x="151.2" y="177.1" fill="#EDEEEF" rx="3.02"/>
  <rect width="27.95" height="12.09" x="151.2" y="189.19" fill="#EDEEEF" rx="6.04"/>
  <path fill="#EDEEEF" d="M302.67 61.06h132.91v110.28H302.67z"/>
  <g fill="#CCC" clip-path="url(#c)">
    <path d="M368.8 97.8a18.2 18.2 0 1 0 0 36.4 18.2 18.2 0 0 0 0-36.4Zm0 34.13a15.93 15.93 0 1 1 0-31.86 15.93 15.93 0 0 1 0 31.86Z"/>
    <path d="M379.04 112.59a3.41 3.41 0 1 0 0 6.82 3.41 3.41 0 0 0 0-6.82Zm0 4.55a1.14 1.14 0 1 1 0-2.28 1.14 1.14 0 0 1 0 2.28ZM358.56 112.59a3.41 3.41 0 1 0 0 6.82 3.41 3.41 0 0 0 0-6.82Zm0 4.55a1.14 1.14 0 1 1 0-2.28 1.14 1.14 0 0 1 0 2.28ZM368.8 122.82a3.41 3.41 0 1 0 0 6.83 3.41 3.41 0 0 0 0-6.83Zm0 4.56a1.14 1.14 0 1 1 0-2.28 1.14 1.14 0 0 1 0 2.28ZM368.8 102.35a3.41 3.41 0 1 0 0 6.83 3.41 3.41 0 0 0 0-6.83Zm0 4.55a1.14 1.14 0 1 1 0-2.27 1.14 1.14 0 0 1 0 2.27Z"/>
    <path d="M390.7 92.85a31.86 31.86 0 0 0-43.77 0c-1.37-.63-3-.28-3.98.87a34.13 34.13 0 0 0 0 44.56c.62.72 1.5 1.15 2.45 1.18h.13c.48 0 .96-.1 1.4-.31a31.85 31.85 0 1 0 43.77-46.3Zm-44.36 44a1.14 1.14 0 0 1-1.67-.04c-.23-.27-.43-.56-.66-.84l2.27-2.26-1.61-1.6-2.04 2.02a31.75 31.75 0 0 1 0-36.25l2.04 2.03 1.6-1.6-2.26-2.27c.23-.28.43-.57.66-.84.2-.23.5-.37.81-.38h.05c.3 0 .6.12.81.34l4.84 4.84c.42.43.44 1.1.05 1.55a22.75 22.75 0 0 0 0 28.92c.39.45.37 1.12-.05 1.54l-4.84 4.85Zm22.45 8.72a29.57 29.57 0 0 1-20.08-7.87l4.08-4.08a3.41 3.41 0 0 0 .2-4.6 20.48 20.48 0 0 1 0-26.03 3.41 3.41 0 0 0-.2-4.6l-4.08-4.09a29.58 29.58 0 1 1 20.08 51.27Z"/>
    <path d="m384.09 99.1-1.6 1.62 1.6 1.6 1.6-1.6-1.6-1.61ZM388.91 97.5l-1.6 1.6 1.6 1.61 1.6-1.6-1.6-1.61ZM384.1 129.68l-1.61 1.6 1.6 1.62 1.62-1.61-1.61-1.61ZM385.7 134.5l-1.61 1.6 1.6 1.61 1.62-1.6-1.61-1.61ZM391.55 114.86h-2.27v2.28h2.27v-2.28ZM396.1 117.14h-2.27v2.27h2.27v-2.27ZM369.94 93.25h-2.28v2.28h2.28v-2.28ZM369.94 136.48h-2.28v2.27h2.28v-2.27ZM372.21 88.7h-2.27v2.27h2.27V88.7ZM367.66 141.03h-2.27v2.27h2.27v-2.27ZM368.8 111.45a4.55 4.55 0 1 0 0 9.1 4.55 4.55 0 0 0 0-9.1Zm0 6.83a2.28 2.28 0 1 1 0-4.56 2.28 2.28 0 0 1 0 4.56ZM345.73 103.73l-2-1.08a28.18 28.18 0 0 0 0 26.7l2-1.07a25.9 25.9 0 0 1 0-24.55ZM347.88 99.91l-1.6 1.61 1.6 1.6 1.61-1.6-1.6-1.6ZM347.88 128.87l-1.6 1.61 1.6 1.6 1.61-1.6-1.6-1.6Z"/>
  </g>
  <rect width="61.18" height="6.04" x="302.67" y="177.1" fill="#EDEEEF" rx="3.02"/>
  <rect width="27.95" height="12.09" x="302.67" y="189.19" fill="#EDEEEF" rx="6.04"/>
  <defs>
    <clipPath id="a">
      <use xlink:href="#reuse-0" transform="translate(32.5 83)"/>
    </clipPath>
    <clipPath id="b">
      <use xlink:href="#reuse-0" transform="translate(183.2 83)"/>
    </clipPath>
    <clipPath id="c">
      <use xlink:href="#reuse-0" transform="translate(334.67 83)"/>
    </clipPath>
  </defs>
</svg>
