<svg xmlns="http://www.w3.org/2000/svg" fill="none" height="4000" viewBox="0 0 64 64" width="4000"><path clip-rule="evenodd" d="m19.3246 5c-3.4435 0-6.5006 2.20344-7.5895 5.4702l-2.98142 8.9442-1.55268-.8965c-.95659-.5522-2.17977-.2245-2.73205.7321-.55229.9566-.22454 2.1798.73205 2.732l2.26156 1.3058-.32374.9712c-3.0654 1.7084-5.13882 4.9826-5.13882 8.741v12c0 4.4183 3.58172 8 8 8 4.0796 0 7.446-3.0537 7.9381-7h13.0908c-.0192-.3309-.0289-.6643-.0289-1 0-1.0237.0905-2.0262.2639-3h-15.2639c-1.1046 0-2 .8954-2 2v1c0 2.2091-1.7909 4-4 4-2.20914 0-4-1.7909-4-4v-12c0-3.3137 2.68629-6 6-6h40c2.6166 0 4.842 1.6749 5.6625 4.0111 1.695 1.173 3.1664 2.6461 4.3375 4.3425v-2.3536c0-3.7584-2.0734-7.0326-5.1388-8.741l-.3562-1.0685 2.0931-1.2085c.9566-.5522 1.2843-1.7754.732-2.732s-1.7754-1.2843-2.732-.7321l-1.3842.7992-2.949-8.8469c-1.0889-3.26676-4.146-5.4702-7.5895-5.4702zm32.9005 18-3.7549-11.2649c-.5445-1.6334-2.073-2.7351-3.7948-2.7351h-25.3508c-1.7218 0-3.2503 1.1017-3.7948 2.7351l-3.7549 11.2649z" fill="#000" fill-rule="evenodd"/><path d="m21 35c0 1.1046-.8954 2-2 2h-4c-1.1046 0-2-.8954-2-2s.8954-2 2-2h4c1.1046 0 2 .8954 2 2z" fill="#000"/><path clip-rule="evenodd" d="m56.3211 36.4865c-4.6487-4.6487-12.1858-4.6487-16.8346 0-4.6487 4.6488-4.6487 12.1859 0 16.8346 4.1668 4.1668 10.6541 4.5987 15.3021 1.2959l3.7972 3.7972c.781.7811 2.0474.7811 2.8284 0 .7811-.781.7811-2.0474 0-2.8284l-3.7972-3.7972c3.3028-4.648 2.8709-11.1353-1.2959-15.3021zm-14.0061 2.8285c3.0866-3.0867 8.091-3.0867 11.1777 0 3.0866 3.0866 3.0866 8.091 0 11.1777-3.0867 3.0866-8.0911 3.0866-11.1777 0-3.0867-3.0867-3.0867-8.0911 0-11.1777z" fill="#fa1228" fill-rule="evenodd"/></svg>