<svg xmlns="http://www.w3.org/2000/svg" fill="currentColor" viewBox="0 0 20 20"><rect width="20" height="20" fill="#f3f3f3" rx="0"/><path fill="#b7b7b7" d="M11.9 8.88a.75.75 0 1 0 0-1.5.75.75 0 0 0 0 1.5Z"/><path fill="#b7b7b7" d="M8.91 6.33a2.81 2.81 0 0 1 2-.83h1.55a2.06 2.06 0 0 1 2.06 2.06v1.72c0 .65-.25 1.27-.7 1.73l-3.16 3.14a1.88 1.88 0 0 1-2.65 0l-2.01-2a2.06 2.06 0 0 1 0-2.92l2.92-2.9Zm2 .3c-.46 0-.89.18-1.2.49L6.8 10.03a.94.94 0 0 0 0 1.33l2.01 2a.75.75 0 0 0 1.06 0l3.15-3.15c.25-.25.39-.59.39-.93V7.56a.94.94 0 0 0-.94-.93H10.9Z"/></svg>